<?xml version="1.0" standalone="no"?>
<!DOCTYPE svg PUBLIC "-//W3C//DTD SVG 20010904//EN"
 "http://www.w3.org/TR/2001/REC-SVG-20010904/DTD/svg10.dtd">
<svg version="1.0" xmlns="http://www.w3.org/2000/svg"
 width="512.000000pt" height="512.000000pt" viewBox="0 0 512.000000 512.000000"
 preserveAspectRatio="xMidYMid meet">
<metadata>
Created by potrace 1.14, written by Peter Selinger 2001-2017
</metadata>
<g transform="translate(0.000000,512.000000) scale(0.100000,-0.100000)"
fill="#000000" stroke="none">
<path d="M2293 4965 c-115 -25 -245 -102 -334 -198 -75 -81 -143 -229 -156
-337 -16 -133 0 -171 75 -174 l40 -1 -3 -70 c-7 -200 110 -394 289 -480 40
-19 79 -35 87 -35 33 -1 41 -16 30 -56 -11 -43 -21 -130 -25 -216 -3 -66 -3
-66 -110 -157 l-81 -69 -90 -6 c-49 -4 -103 -9 -120 -11 -25 -3 -206 -17 -240
-18 -5 0 -144 44 -308 99 l-297 98 -43 -14 c-73 -26 -78 -45 -75 -317 3 -271
1 -264 98 -271 33 -2 60 -7 60 -10 0 -4 -28 -101 -61 -217 -77 -262 -77 -264
-66 -297 10 -33 65 -55 95 -39 33 18 40 35 92 217 28 98 55 190 60 204 5 14
16 51 25 83 l16 57 105 0 c96 0 105 -2 100 -17 -40 -133 -76 -282 -100 -408
-40 -214 -40 -524 0 -745 2 -14 7 -41 10 -60 18 -115 91 -350 165 -538 27 -67
49 -124 49 -125 0 -1 -30 -2 -67 -1 -56 2 -70 6 -85 24 -10 13 -54 61 -97 109
-83 92 -232 257 -346 386 -38 43 -76 85 -84 92 -12 13 -7 40 38 196 71 247 72
252 61 281 -18 48 -83 62 -116 24 -23 -26 -28 -40 -84 -243 -23 -82 -46 -156
-50 -164 -4 -8 -23 -16 -41 -17 -59 -5 -131 -14 -139 -19 -3 -2 -17 -6 -31 -9
-84 -15 -237 -100 -320 -178 -93 -87 -185 -242 -210 -354 -17 -76 3 -103 90
-124 l63 -15 3 -79 c8 -153 60 -271 170 -381 216 -216 563 -223 787 -17 55 52
127 153 142 200 7 20 12 23 34 16 125 -34 165 -15 181 83 l6 38 783 1 782 1
11 -41 c33 -131 89 -228 184 -322 250 -248 652 -242 896 13 79 81 141 195 169
310 9 37 14 41 38 40 60 -3 109 12 127 39 21 33 21 112 1 209 -8 38 -13 72
-11 75 8 13 19 155 19 255 1 171 -17 270 -73 409 l-29 71 29 30 c48 51 59 92
59 225 l0 120 218 0 c209 0 219 1 269 25 61 28 104 68 135 128 l23 42 0 515
c0 512 0 515 -22 556 -28 53 -74 99 -127 127 -41 22 -44 22 -551 22 -477 0
-512 -1 -547 -19 -54 -26 -102 -74 -129 -126 l-24 -45 -3 -537 -3 -538 -163 0
-164 0 10 43 c16 70 13 315 -7 477 -21 173 -49 304 -96 445 -74 220 -163 371
-306 513 -57 57 -90 98 -86 105 4 7 23 32 42 57 128 168 163 446 82 661 -65
173 -229 327 -406 381 -85 26 -233 32 -322 13z m228 -145 c117 -22 248 -112
315 -216 143 -223 81 -572 -126 -712 -77 -52 -72 -63 -74 183 -1 247 -7 269
-76 310 -33 19 -52 20 -317 21 -156 0 -285 3 -288 5 -10 10 25 112 59 173 44
78 126 155 209 196 96 47 191 60 298 40z m-40 -569 c3 0 5 -101 5 -223 l-1
-223 -73 1 c-60 2 -85 7 -136 33 -73 36 -91 50 -138 113 -44 57 -70 132 -73
207 -4 102 -16 97 211 95 110 -1 202 -2 205 -3z m320 -542 c177 -126 338 -408
395 -694 34 -170 47 -270 48 -375 l1 -64 -329 -1 c-205 0 -334 4 -342 10 -11
9 -74 229 -74 259 0 6 53 45 116 86 175 113 234 182 249 291 18 128 -89 265
-223 285 -40 6 -125 -9 -176 -31 -21 -9 -20 -7 5 121 l10 51 90 22 c49 12 109
33 132 46 23 12 45 23 48 24 3 1 26 -13 50 -30z m2131 -357 c32 -32 33 -35 36
-132 4 -91 2 -100 -15 -101 -107 -7 -1086 -2 -1091 5 -12 20 -2 168 14 201 31
66 26 65 551 62 l473 -2 32 -33z m-2300 2 c62 -12 100 -87 74 -148 -19 -45
-71 -86 -271 -215 l-170 -109 -148 0 c-129 0 -147 2 -148 17 -6 95 -4 111 16
112 11 0 29 2 40 4 11 2 43 5 70 6 28 1 59 6 70 12 20 10 111 82 130 103 25
27 213 184 242 201 35 21 53 24 95 17z m-1178 -356 c-8 -22 -14 -58 -14 -78
l0 -38 -180 0 -180 1 0 142 0 142 194 -64 195 -64 -15 -41z m361 -58 l0 -55
-100 -1 c-105 -2 -125 5 -125 40 1 43 23 56 106 64 126 12 119 15 119 -48z
m3155 -52 c0 -76 -1 -78 -25 -79 -14 0 -263 -1 -554 -2 l-529 -2 -4 55 c-2 30
-2 66 0 80 l3 25 554 1 555 0 0 -78z m-2595 -170 c4 -23 15 -65 25 -94 10 -28
15 -55 11 -61 -3 -5 -22 -15 -41 -23 -126 -49 -228 -154 -287 -295 -44 -104
-56 -195 -59 -455 -1 -135 -3 -255 -3 -267 -1 -17 -10 -25 -40 -34 -55 -16
-130 -76 -163 -129 -15 -25 -35 -75 -44 -112 l-17 -67 -73 -3 -73 -3 -26 81
c-70 222 -109 457 -109 664 0 66 12 251 18 286 2 10 6 35 9 54 20 112 19 107
41 205 9 39 30 114 47 168 l30 97 342 0 c278 1 347 3 367 15 36 20 37 19 45
-27z m2593 -220 l-3 -158 -33 -32 -32 -33 -520 -3 -520 -3 0 43 c-1 53 -1 307
0 329 0 13 61 15 556 15 l555 0 -3 -158z m-1718 -109 c0 -56 -28 -136 -61
-174 -57 -65 -112 -77 -379 -84 -219 -6 -237 -8 -270 -28 -42 -26 -75 -81 -85
-139 -3 -22 -7 -134 -7 -247 -1 -139 -5 -207 -12 -208 -11 -1 -137 0 -224 1
l-43 0 2 228 c2 241 14 354 49 443 45 114 121 189 225 224 57 19 84 21 433 20
l372 0 0 -36z m1070 -383 c0 -93 -3 -116 -16 -127 -13 -11 -94 -14 -403 -14
-212 -1 -396 -4 -407 -8 -12 -4 -27 -21 -34 -37 -15 -37 0 -83 33 -97 12 -5
178 -9 379 -8 l357 0 31 -68 c39 -87 68 -209 74 -310 l5 -78 -77 79 c-114 116
-213 177 -368 223 -106 32 -302 35 -414 5 -239 -62 -424 -212 -534 -432 -36
-73 -74 -194 -78 -252 -1 -19 -6 -36 -11 -39 -11 -7 -1105 -8 -1111 -2 -5 4
-76 179 -76 185 0 2 184 3 408 3 447 -1 462 1 499 57 16 25 18 56 20 319 1
159 2 295 2 300 1 6 112 10 311 10 300 0 310 1 330 21 29 28 29 79 1 107 -21
22 -27 22 -329 22 l-307 1 1 47 c0 26 5 52 10 57 5 5 104 11 219 14 116 2 223
7 239 10 91 21 194 74 219 113 6 10 120 13 517 13 l510 0 0 -114z m-460 -591
c233 -71 416 -268 465 -500 8 -38 12 -71 10 -74 -8 -8 -1300 -6 -1311 2 -23
16 21 161 79 262 94 163 251 278 437 321 72 17 248 11 320 -11z m-3063 -76
c15 -17 31 -36 37 -43 6 -6 34 -36 61 -66 28 -30 82 -91 120 -134 39 -44 75
-84 80 -90 131 -142 246 -279 239 -286 -5 -5 -96 12 -214 39 -113 27 -369 86
-570 131 -201 46 -368 86 -372 89 -14 11 55 131 110 191 80 89 203 165 298
185 134 28 177 25 211 -16z m1650 -71 l2 -87 -197 -3 c-108 -2 -229 -2 -268 0
l-72 3 8 34 c16 73 66 123 135 137 11 2 103 4 205 4 l185 -1 2 -87z m-1912
-528 c99 -23 225 -52 280 -65 55 -13 146 -34 202 -47 57 -12 103 -28 103 -33
0 -6 -16 -33 -35 -62 -116 -172 -344 -233 -531 -143 -131 64 -215 181 -240
334 -7 48 1 69 23 62 10 -3 99 -24 198 -46z m3621 -84 c-13 -64 -69 -159 -131
-221 -192 -192 -489 -192 -681 1 -61 61 -118 157 -130 220 l-6 30 477 0 477 1
-6 -31z"/>
</g>
</svg>
