<?xml version="1.0" encoding="UTF-8" standalone="no"?>
<svg
   xmlns:dc="http://purl.org/dc/elements/1.1/"
   xmlns:cc="http://creativecommons.org/ns#"
   xmlns:rdf="http://www.w3.org/1999/02/22-rdf-syntax-ns#"
   xmlns:svg="http://www.w3.org/2000/svg"
   xmlns="http://www.w3.org/2000/svg"
   xmlns:sodipodi="http://sodipodi.sourceforge.net/DTD/sodipodi-0.dtd"
   xmlns:inkscape="http://www.inkscape.org/namespaces/inkscape"
   width="210mm"
   height="210mm"
   viewBox="0 0 210 210"
   version="1.1"
   id="svg8"
   inkscape:version="1.0.2 (1.0.2+r75+1)"
   sodipodi:docname="arrow.svg">
  <defs
     id="defs2" />
  <sodipodi:namedview
     id="base"
     pagecolor="#ffffff"
     bordercolor="#666666"
     borderopacity="1.0"
     inkscape:pageopacity="0.0"
     inkscape:pageshadow="2"
     inkscape:zoom="0.49497475"
     inkscape:cx="329.94209"
     inkscape:cy="756.77835"
     inkscape:document-units="mm"
     inkscape:current-layer="g164"
     inkscape:document-rotation="0"
     showgrid="false"
     showguides="true"
     inkscape:guide-bbox="true"
     inkscape:window-width="2488"
     inkscape:window-height="1376"
     inkscape:window-x="72"
     inkscape:window-y="27"
     inkscape:window-maximized="1" />
  <metadata
     id="metadata5">
    <rdf:RDF>
      <cc:Work
         rdf:about="">
        <dc:format>image/svg+xml</dc:format>
        <dc:type
           rdf:resource="http://purl.org/dc/dcmitype/StillImage" />
        <dc:title></dc:title>
      </cc:Work>
    </rdf:RDF>
  </metadata>
  <g
     inkscape:label="Layer 1"
     inkscape:groupmode="layer"
     id="layer1">
    <g
       id="g164"
       transform="matrix(2.650187,0,0,2.8276873,-171.46795,-230.89128)">
      <g
         id="g78"
         transform="matrix(-0.26458282,-5.2123312e-4,5.2123312e-4,-0.26458282,142.7422,161.59485)"
         inkscape:transform-center-x="-0.70702032"
         inkscape:transform-center-y="-0.35922758">
        <path
           id="XMLID_28_"
           d="M 191.55303,150.13129 C 103.62403,150.13129 139.142,150 51.213,150 l 49.393,-49.394 c 5.858,-5.857 5.858,-15.355 0,-21.213 -5.857,-5.857 -15.355,-5.857 -21.213,0 l -75,75 c -5.858,5.857 -5.858,15.355 0,21.213 l 75,75 C 82.323,253.535 86.161,255 90,255 c 3.839,0 7.678,-1.465 10.606,-4.394 5.858,-5.857 5.858,-15.355 0,-21.213 L 51.213,180 c 87.929,0 52.41103,0.13129 140.34003,0.13129 8.284,0 15,-6.716 15,-15 0,-8.284 -6.716,-15 -15,-15 z"
           sodipodi:nodetypes="cccsccscscsccsc"
           style="fill:#ffffff" />
        <g
           id="g25">
</g>
        <g
           id="g27">
</g>
        <g
           id="g29">
</g>
        <g
           id="g31">
</g>
        <g
           id="g33">
</g>
        <g
           id="g35">
</g>
        <g
           id="g37">
</g>
        <g
           id="g39">
</g>
        <g
           id="g41">
</g>
        <g
           id="g43">
</g>
        <g
           id="g45">
</g>
        <g
           id="g47">
</g>
        <g
           id="g49">
</g>
        <g
           id="g51">
</g>
        <g
           id="g53">
</g>
      </g>
      <path
         id="XMLID_28_-7"
         d="m 69.203512,121.82681 c 23.264501,0.0458 -11.124136,-0.0585 12.140359,-0.012 5.063704,0 4.614795,-7.93744 0.118271,-7.93744 -1.095811,-0.0707 -3.550602,0.0288 -12.242929,0.012 -2.191805,-0.004 -3.972243,1.76912 -3.976561,3.96093 -0.0043,2.1918 1.76912,3.97224 3.960924,3.97656 z"
         sodipodi:nodetypes="ccccscc"
         style="stroke-width:0.264583;fill:#ffffff" />
    </g>
  </g>
</svg>
